<svg width="24" height="23" viewBox="0 0 24 23" fill="none" xmlns="http://www.w3.org/2000/svg">
<path d="M12 0.982788C5.85612 0.982788 0.857143 5.36404 0.857143 10.7488C0.857143 14.6893 3.60746 18.168 7.71428 19.6858V20.5148H1.71429V19.0123H0V22.0172H9.42857V18.7159L8.8577 18.5385C5.08557 17.3693 2.57143 14.2523 2.57143 10.7489C2.57143 6.17611 6.78259 2.48536 12 2.48536C17.2174 2.48536 21.4286 6.17611 21.4286 10.7489C21.4286 14.2523 18.9143 17.3693 15.1456 18.5385L14.5764 18.7159L14.5698 22.0172H24V19.0123H22.2857V20.5148H16.2874L16.2891 19.6843C20.3927 18.1663 23.1429 14.6891 23.1429 10.7488C23.1429 5.36404 18.1439 0.982788 12 0.982788Z" fill="#279EF8"/>
</svg>
